<?xml version="1.0" encoding="iso-8859-1"?>
<!-- Generator: Adobe Illustrator 19.0.0, SVG Export Plug-In . SVG Version: 6.00 Build 0)  -->
<svg version="1.1" id="Capa_1" xmlns="http://www.w3.org/2000/svg" xmlns:xlink="http://www.w3.org/1999/xlink" x="0px" y="0px"
	 viewBox="0 0 512 512" style="enable-background:new 0 0 512 512;" xml:space="preserve">
<circle style="fill:#2F0013;" cx="256" cy="256" r="256"/>
<g>
	<path style="fill:#FF3A97;" d="M116.572,41.272c-6.029-1.421-12.591-2.1-19.163-2.1c-22.862,0-45.735,8.213-45.735,27.564v343.51
		c16.478,21.797,36.373,40.876,58.88,56.445c17.742-2.936,32.59-11.964,32.59-27.073V66.737
		C143.144,52.944,131.524,44.815,116.572,41.272z"/>
	<path style="fill:#FF3A97;" d="M415.768,29.214c-11.473,0-21.901,2.205-29.947,6.102c-10.041,4.848-16.374,12.34-16.374,21.452
		V229.72c-12.309-22.862-38.693-44.554-74.459-44.554c-57.459,0-103.779,55.693-103.779,123.12v41.044
		c0,65.076,47.491,124.291,102.024,124.291c37.522,0,70.353-22.862,82.077-46.905v12.905c0,11.107,11.337,22.225,27.094,26.405
		c22.121-15.433,41.671-34.283,57.919-55.766V56.768C460.322,40.353,441.556,29.214,415.768,29.214z M369.448,356.947
		c0,9.968-19.937,37.522-45.15,37.522c-23.448,0-42.214-22.277-42.214-45.14v-41.044c0-22.277,18.766-43.969,42.799-43.969
		c21.117,0,44.565,16.415,44.565,43.969L369.448,356.947L369.448,356.947z"/>
</g>
<g>
</g>
<g>
</g>
<g>
</g>
<g>
</g>
<g>
</g>
<g>
</g>
<g>
</g>
<g>
</g>
<g>
</g>
<g>
</g>
<g>
</g>
<g>
</g>
<g>
</g>
<g>
</g>
<g>
</g>
</svg>
